<svg width="86" height="36" viewBox="0 0 86 36" fill="none" xmlns="http://www.w3.org/2000/svg">
<g clip-path="url(#clip0_11_43)">
<path d="M-0.00146484 1.37203H2.548L5.30434 9.62986C5.60285 10.4966 5.90133 11.8425 5.90133 11.8425C5.90133 11.8425 6.29203 10.5194 6.65949 9.62986L10.2425 1.21199H10.541L14.1471 9.62986C14.5147 10.4966 14.8823 11.8425 14.8823 11.8425C14.8823 11.8425 15.2037 10.4966 15.5024 9.62986L18.2586 1.37203H20.6244L15.2267 17.0437H14.9282L11.0463 7.80486C10.7248 7.05177 10.4034 5.91143 10.4034 5.91143C10.4034 5.91143 10.0358 7.05177 9.71434 7.80486L5.74067 17.0437H5.44219L-0.00146484 1.37203ZM38.4457 1.21199H38.6981L46.1628 9.8807L53.5593 1.21199H53.8116V16.8836H51.4921V8.8313C51.4921 7.96442 51.5835 6.59589 51.5835 6.59589C51.5835 6.59589 50.8257 7.75908 50.1827 8.46624L46.255 13.1656H45.9797L42.052 8.46624C41.4547 7.75908 40.6735 6.59589 40.6735 6.59589C40.6735 6.59589 40.7652 7.96442 40.7652 8.8313V16.8836H38.4457V1.21199ZM56.4291 1.37203H66.3517V3.49334H58.8639V9.5158H65.5017V11.5916H58.8639V14.7623H66.6736V16.8836H56.4291V1.37203ZM72.3227 7.82767C71.7028 7.16586 70.8528 6.09412 70.8528 6.09412C70.8528 6.09412 71.0142 7.37137 71.0142 8.32949V16.8836H68.7626V1.21199H69.0845L77.6977 10.4053C78.2949 11.0439 79.1445 12.1389 79.1445 12.1389C79.1445 12.1389 78.984 10.7702 78.984 9.90352V1.37203H81.2347V17.0437H80.9363L72.3227 7.82767ZM15.2651 27.78C15.2651 24.365 12.8935 21.7976 9.52602 21.7976C6.15871 21.7976 3.76359 24.365 3.76359 27.78C3.76359 31.1952 6.15871 33.7624 9.52602 33.7624C12.8935 33.7624 15.2651 31.1952 15.2651 27.78ZM1.20232 27.78C1.20232 22.999 4.90168 19.5604 9.52602 19.5604C14.1266 19.5604 17.8261 22.999 17.8261 27.78C17.8261 32.5611 14.1266 35.9998 9.52602 35.9998C4.90168 35.9998 1.20232 32.5611 1.20232 27.78ZM17.7071 19.7724H20.3395L23.1853 28.298C23.4936 29.1934 23.8019 30.5827 23.8019 30.5827C23.8019 30.5827 24.2049 29.2168 24.5844 28.298L28.2839 19.6074H28.5922L32.3153 28.298C32.6948 29.1934 33.074 30.5827 33.074 30.5827C33.074 30.5827 33.4062 29.1934 33.7143 28.298L36.5599 19.7724H39.0029L33.4298 35.9528H33.1217L29.1139 26.4141C28.782 25.6368 28.4497 24.4593 28.4497 24.4593C28.4497 24.4593 28.0704 25.6368 27.7384 26.4141L23.6358 35.9528H23.3275L17.7071 19.7724ZM44.1004 26.4377C43.4603 25.7548 42.5829 24.6479 42.5829 24.6479C42.5829 24.6479 42.7486 25.9667 42.7486 26.9557V35.7878H40.4247V19.6074H40.7565L49.6495 29.0989C50.2662 29.7584 51.1436 30.8888 51.1436 30.8888C51.1436 30.8888 50.9775 29.4758 50.9775 28.5809V19.7724H53.3014V35.9528H52.9934L44.1004 26.4377ZM56.0043 19.7724H66.2488V21.9626H58.5178V28.1806H65.3714V30.3237H58.5178V33.5974H66.581V35.7878H56.0043V19.7724ZM73.0066 33.5974C77.2045 33.5974 79.1727 31.1952 79.1727 27.78C79.1727 24.365 77.2045 21.9626 73.0066 21.9626H71.2518V33.5974H73.0066ZM68.7384 19.7724H73.1727C78.3426 19.7724 81.7812 22.9755 81.7812 27.78C81.7812 32.5845 78.3661 35.7878 73.1727 35.7878H68.7384V19.7724Z" fill="#1E231E"/>
<path d="M24.8165 7.41767C25.2454 7.57183 25.682 7.8239 26.1139 8.16785C26.1313 8.14886 26.1482 8.13008 26.1644 8.11062C26.323 7.92544 26.4643 7.72626 26.5865 7.51555C26.7417 7.24899 26.8666 6.96164 26.9585 6.66118C26.9901 6.56157 27.0141 6.46137 27.0375 6.36057L27.0721 6.18526C27.093 6.08119 27.1082 6.00273 27.1182 5.92257C27.1693 5.52701 27.1726 5.10673 27.1283 4.67244C27.0818 4.22505 26.9843 3.74976 26.8381 3.25936C26.8185 3.19368 26.7864 3.12525 26.7383 3.04509C26.611 2.83249 26.4104 2.676 26.1745 2.60493C25.9819 2.54805 25.8058 2.54636 25.6113 2.60157C25.4875 2.63813 25.3723 2.69865 25.2722 2.77964C25.1721 2.86063 25.0891 2.96049 25.028 3.07347C24.9024 3.30391 24.8749 3.56834 24.9501 3.81824C24.9762 3.9055 25.0004 3.99329 25.0229 4.08155C25.0475 4.17611 25.0696 4.27131 25.089 4.36705C25.1036 4.43766 25.1169 4.5072 25.1277 4.57642C25.1383 4.63684 25.1478 4.70145 25.1562 4.76326C25.2051 5.155 25.2006 5.50017 25.1416 5.81973C25.1137 5.96496 25.0784 6.09185 25.0347 6.21088C24.9923 6.32355 24.9408 6.43263 24.8807 6.53706C24.8077 6.66395 24.7208 6.78203 24.616 6.89703C24.5303 6.99182 24.4368 7.07938 24.3364 7.15881C24.3128 7.17778 24.2889 7.19633 24.2646 7.21446C24.3571 7.24777 24.4451 7.27998 24.5282 7.31068L24.8165 7.41767ZM22.3671 6.15428C23.0339 6.15428 23.576 5.61549 23.576 4.95305C23.576 4.29072 23.0339 3.75193 22.3671 3.75193C21.7003 3.75193 21.1577 4.29072 21.1577 4.95305C21.1577 5.61549 21.7003 6.15428 22.3671 6.15428Z" fill="#1E231E"/>
<path d="M24.9617 11.1594C25.0346 11.2841 25.0947 11.4172 25.1433 11.5657C25.1825 11.6874 25.2121 11.8119 25.2318 11.9381C25.2364 11.9677 25.2403 11.9976 25.2442 12.0276C25.3125 11.9703 25.3792 11.9163 25.4421 11.8647L25.6965 11.6553C26.0462 11.3624 26.4843 11.1133 27.0005 10.9141C26.9926 10.8894 26.9843 10.8649 26.9757 10.841C26.8929 10.6125 26.79 10.3917 26.6682 10.181C26.5107 9.91197 26.3232 9.66142 26.1091 9.43413C26.0385 9.35828 25.9633 9.28704 25.8865 9.21628L25.7502 9.09725C25.6708 9.02881 25.6096 8.97656 25.5446 8.92798C25.2268 8.68719 24.862 8.47396 24.4592 8.29296C24.0472 8.11 23.5837 7.95644 23.0827 7.83681C23.0201 7.82233 22.9521 7.81491 22.8688 7.81491C22.5963 7.81878 22.3598 7.91283 22.1799 8.07993C22.0332 8.2179 21.9423 8.37146 21.8958 8.56248C21.8353 8.81621 21.8773 9.0783 22.0151 9.30046C22.153 9.52368 22.3698 9.67937 22.6254 9.74011C22.7146 9.76116 22.8033 9.78415 22.8916 9.80906C22.9865 9.83539 23.0807 9.86417 23.1741 9.89537C23.2421 9.91749 23.3096 9.94129 23.3765 9.96677C23.4359 9.98884 23.4949 10.012 23.5534 10.0363C23.9199 10.1892 24.2181 10.3659 24.467 10.576C24.5797 10.6724 24.6726 10.7664 24.7544 10.864C24.8319 10.9563 24.9013 11.0552 24.9617 11.1594ZM22.928 11.4895C22.7451 11.3843 22.5376 11.3288 22.3263 11.3285C21.8941 11.3285 21.4919 11.5585 21.2765 11.9293C21.1152 12.2063 21.0725 12.5297 21.156 12.8404C21.2397 13.1503 21.4396 13.4096 21.7191 13.5693C21.9023 13.6745 22.1101 13.73 22.3217 13.7302C22.7543 13.7302 23.1561 13.5004 23.3714 13.1296C23.5327 12.8524 23.5753 12.5291 23.4914 12.2191C23.4077 11.9086 23.2076 11.6492 22.928 11.4895Z" fill="#1E231E"/>
<path d="M25.9386 15.0059C26.2026 14.9987 26.4469 14.8902 26.6267 14.7009C26.6901 14.6347 26.7546 14.5696 26.8202 14.5056C26.8906 14.4375 26.9626 14.3713 27.0363 14.3068C27.0897 14.2591 27.1443 14.2128 27.2001 14.1678C27.2443 14.1309 27.2924 14.0938 27.3402 14.0569C27.6664 13.8119 27.9695 13.6433 28.2772 13.5349C28.4178 13.4859 28.5462 13.4532 28.6729 13.4313C28.9368 13.3857 29.2075 13.3919 29.478 13.4477C29.604 13.4745 29.7275 13.5115 29.8475 13.5582C29.8757 13.5689 29.9037 13.5801 29.9316 13.5916C29.916 13.5066 29.9013 13.4215 29.8874 13.3362L29.833 13.0155C29.7523 12.5703 29.7543 12.0684 29.8384 11.5246C29.8132 11.5189 29.7875 11.514 29.7618 11.5095C29.5214 11.4661 29.2775 11.4444 29.0332 11.4444C28.7221 11.4444 28.409 11.48 28.1024 11.5511C28.0003 11.5741 27.9012 11.6035 27.8014 11.6336L27.6299 11.6914C27.5212 11.7293 27.4495 11.7532 27.3789 11.7835C27.0078 11.937 26.6397 12.1445 26.2833 12.4001C25.9145 12.6643 25.5485 12.9861 25.1961 13.3556C25.1478 13.4063 25.1042 13.468 25.0594 13.5482C24.9377 13.7648 24.9012 14.0153 24.9568 14.2544C25.0039 14.4486 25.0924 14.6034 25.2358 14.7392C25.4174 14.9107 25.6584 15.0062 25.9089 15.0059H25.9386ZM28.9071 15.1539C28.6957 15.1539 28.4874 15.2096 28.3039 15.3149C27.7263 15.6459 27.5279 16.3817 27.8614 16.9551C28.0767 17.3252 28.479 17.5555 28.911 17.5555C29.1216 17.5555 29.3302 17.5001 29.5134 17.3948C30.0905 17.0636 30.2897 16.3277 29.9561 15.7538C29.741 15.3838 29.3391 15.1539 28.9071 15.1539Z" fill="#1E231E"/>
<path d="M33.0859 10.1391C32.6574 9.98494 32.2207 9.7324 31.7892 9.38892C31.7726 9.40786 31.755 9.42732 31.7388 9.44674C31.5805 9.63229 31.4392 9.83143 31.3164 10.0418C31.1614 10.3077 31.0365 10.5951 30.9447 10.8956C30.9139 10.9942 30.8898 11.0954 30.8662 11.1962L30.8308 11.3719C30.8091 11.4845 30.7951 11.5579 30.786 11.6325C30.7346 12.0291 30.7312 12.4496 30.7754 12.8848C30.8214 13.3334 30.919 13.8087 31.0658 14.2967C31.0854 14.3637 31.1167 14.4315 31.165 14.511C31.2922 14.7242 31.4924 14.8807 31.7287 14.9518C31.9236 15.0104 32.0987 15.0115 32.2907 14.9552C32.543 14.8807 32.7508 14.7127 32.8759 14.4831C33.0009 14.2534 33.0284 13.9897 32.9532 13.7392C32.9268 13.6489 32.9022 13.5616 32.8804 13.4758C32.8561 13.381 32.8343 13.2856 32.8149 13.1897C32.8003 13.1191 32.786 13.0494 32.7755 12.9805C32.7648 12.9193 32.7559 12.8547 32.7476 12.7935C32.6982 12.4001 32.7033 12.0549 32.7622 11.7365C32.7896 11.5918 32.825 11.4644 32.8697 11.3447C32.9113 11.2322 32.9624 11.1235 33.0226 11.0197C33.0978 10.891 33.1864 10.7704 33.2868 10.66C33.3708 10.5672 33.4648 10.4798 33.5664 10.3985C33.5898 10.3796 33.6139 10.3614 33.6385 10.3429C33.5484 10.3101 33.4616 10.2777 33.3802 10.2476L33.0859 10.1391ZM35.5368 11.4025C34.8698 11.4025 34.3273 11.9413 34.3273 12.6037C34.3273 13.266 34.8698 13.8048 35.5368 13.8048C36.2037 13.8048 36.746 13.266 36.746 12.6037C36.746 11.9413 36.2037 11.4025 35.5368 11.4025Z" fill="#1E231E"/>
<path d="M35.058 9.74123C35.307 9.73799 35.5432 9.64395 35.7242 9.47637C35.87 9.33947 35.9602 9.1859 36.0074 8.99429C36.0679 8.74053 36.0258 8.47784 35.8884 8.25632C35.7506 8.03309 35.5338 7.8772 35.2776 7.81662C35.1886 7.79557 35.1 7.77254 35.012 7.74755C34.917 7.72133 34.8226 7.6926 34.7291 7.6614C34.6611 7.63906 34.5936 7.61531 34.5266 7.59016C34.4673 7.56849 34.4085 7.54546 34.3502 7.5211C33.9841 7.36817 33.6861 7.19104 33.4366 6.98073C33.3235 6.88376 33.2305 6.78975 33.1487 6.69247C33.0718 6.6005 33.0028 6.5023 32.9424 6.39892C32.8673 6.26939 32.8061 6.13236 32.7599 5.99009C32.721 5.87244 32.6919 5.74729 32.6717 5.61871C32.6673 5.58927 32.6629 5.55919 32.6596 5.52912C32.586 5.59033 32.5154 5.64815 32.4494 5.70273L32.2056 5.90251C31.8571 6.19436 31.4187 6.44347 30.9026 6.64266C30.911 6.66717 30.9195 6.69124 30.9277 6.71465C31.0084 6.94067 31.1121 7.16267 31.2356 7.3757C31.3895 7.64135 31.5778 7.89279 31.7942 8.12264C31.8653 8.19956 31.9411 8.27032 32.0173 8.34077L32.1529 8.45949C32.2324 8.52796 32.2936 8.58021 32.3586 8.62876C32.6768 8.87017 33.0416 9.08341 33.4439 9.26377C33.8592 9.448 34.3227 9.60156 34.8205 9.72012C34.8837 9.73476 34.9515 9.74182 35.035 9.74182L35.058 9.74123ZM34.9751 6.06732C35.5338 6.38798 36.3066 6.17925 36.6266 5.6281C36.9606 5.0543 36.7622 4.31846 36.1843 3.98749C36.0013 3.88228 35.7935 3.82678 35.582 3.82655C35.1499 3.82655 34.7475 4.0564 34.5324 4.42714C34.371 4.70436 34.3284 5.02762 34.4118 5.33826C34.4959 5.64815 34.6958 5.9076 34.9751 6.06732Z" fill="#1E231E"/>
<path d="M28.0708 4.5413C28.1511 4.98884 28.1492 5.49081 28.0652 6.03284C28.0902 6.03799 28.1153 6.04282 28.1404 6.04732C28.6829 6.14694 29.256 6.13198 29.8014 6.00569C29.9029 5.98272 30.0026 5.95391 30.1018 5.92324L30.2742 5.86602C30.3764 5.83026 30.4509 5.80469 30.5238 5.77398C30.8958 5.61935 31.2646 5.41172 31.6205 5.15689C31.9864 4.89479 32.3524 4.5735 32.7071 4.20121C32.7543 4.15172 32.7986 4.08976 32.8451 4.00759C32.9659 3.79207 33.0024 3.54169 32.9463 3.30336C32.8999 3.10847 32.8113 2.95384 32.6679 2.81757C32.4861 2.64604 32.2449 2.55054 31.9941 2.55086C31.7012 2.55828 31.4569 2.66665 31.2759 2.85644C31.2136 2.92254 31.1497 2.98715 31.0842 3.05022C31.0132 3.11882 30.9405 3.18565 30.8661 3.25063C30.8129 3.29808 30.7586 3.34424 30.7031 3.38908C30.6545 3.42924 30.605 3.4684 30.5548 3.50653C30.2369 3.74518 29.9331 3.91354 29.626 4.02192C29.486 4.07094 29.3575 4.10361 29.231 4.12552C28.968 4.16944 28.7007 4.16605 28.4249 4.10934C28.2992 4.08257 28.176 4.04554 28.0564 3.99863C28.0282 3.98794 28.0001 3.97678 27.9723 3.96517C27.9895 4.06091 28.0053 4.15326 28.0199 4.23958L28.0708 4.5413ZM29.599 2.24191C30.1769 1.91138 30.3758 1.1751 30.0423 0.601778C29.8272 0.230993 29.4249 0.0012989 28.9921 0.0012989C28.7808 0.00146151 28.5732 0.0569167 28.3903 0.162083C28.1107 0.321803 27.9106 0.581254 27.8271 0.891892C27.7436 1.20194 27.7863 1.52568 27.9477 1.80301C28.2683 2.35384 29.0415 2.56321 29.599 2.24191Z" fill="#1E231E"/>
<path d="M84.1909 3.23597C84.5196 3.23597 84.6507 3.08379 84.6507 2.83389C84.6507 2.58415 84.5196 2.42135 84.1909 2.42135H83.9942V3.23597H84.1909ZM85.0334 4.01788H84.5963L84.2788 3.55076H83.9942V4.01788H83.5897V2.08435H84.2025C84.7822 2.08435 85.0556 2.42135 85.0556 2.82296C85.0556 3.10538 84.9134 3.33385 84.6618 3.45304L85.0334 4.01788ZM85.6676 3.07286C85.6676 2.2254 85.0664 1.65006 84.2462 1.65006C83.4363 1.65006 82.8462 2.2254 82.8462 3.07286C82.8462 3.89841 83.4363 4.46325 84.2462 4.46325C85.0664 4.46325 85.6676 3.89841 85.6676 3.07286ZM82.5176 3.07286C82.5176 2.08435 83.2941 1.36749 84.2462 1.36749C85.2086 1.36749 85.9962 2.08435 85.9962 3.07286C85.9962 4.05071 85.2086 4.76758 84.2462 4.76758C83.2941 4.76758 82.5176 4.05071 82.5176 3.07286Z" fill="#1E231E"/>
</g>
<defs>
<clipPath id="clip0_11_43">
<rect width="86" height="36" fill="white"/>
</clipPath>
</defs>
</svg>
